 http://i1178.photobucket.com/albums/x366/CHERUTHOTTIL/Madboyzz/MGLogoNew.png 
http://i.imgrz.com/sKyh9.jpg

Makkhi (2012) DVD Rip (Non Retail) - XviD - Mp3 - [700MB]

****DVDSCR Audio Cleaned ****

General
Complete name:makhi.pre.dvdrip.dvdscr.audio.700MB.avi
Format : AVI
Format/Info: Audio Video Interleave
File size: 703 MiB
Duration : 2h 9mn
Overall bit rate : 761 Kbps

Video
ID : 0
Format : MPEG-4 Visual
Format profile : Advanced Simple@L5
Format settings, BVOP: 1
Format settings, QPel: No
Format settings, GMC : No warppoints
Format settings, Matrix: Custom
Codec ID : XVID
Codec ID/Hint: XviD
Duration : 2h 9mn
Bit rate : 652 Kbps
Width: 608 pixels
Height : 256 pixels
Display aspect ratio : 2.40:1
Frame rate : 25.000 fps
Color space: YUV
Chroma subsampling : 4:2:0
Bit depth: 8 bits
Scan type: Progressive
Compression mode : Lossy
Bits/(Pixel*Frame) : 0.168
Stream size: 602 MiB (86%)
Writing library: XviD 1.2.1 (UTC 2008-12-04)

Audio
ID : 1
Format : MPEG Audio
Format version : Version 1
Format profile : Layer 3
Mode : Joint stereo
Mode extension : MS Stereo
Codec ID : 55
Codec ID/Hint: MP3
Duration : 2h 9mn
Bit rate mode: Constant
Bit rate : 96.0 Kbps
Channel(s) : 2 channels
Sampling rate: 48.0 KHz
Compression mode : Lossy
Stream size: 88.6 MiB (13%)
Alignment: Aligned on interleaves
Interleave, duration : 24 ms (0.60 video frame)
Interleave, preload duration : 192 ms
Title: Makkhi (2012) - 1CD - DVDScr Rip - x264 - [Audio & Video Cleaned] - Team IcTv Exclusive
Writing library: LAME3.99.5


 
http://www.freeimgsharing.com/images/84073115819743646067.png 
http://www.freeimgsharing.com/images/93986824817885451047.png 
http://www.freeimgsharing.com/images/40266380346008328962.png 
http://www.freeimgsharing.com/images/97736225052367463985.png
